<?xml version="1.0" encoding="UTF-8" standalone="no"?>
<!-- Created with Inkscape (http://www.inkscape.org/) -->

<svg
   width="160.18405"
   height="150"
   viewBox="0 0 42.38203 39.6875"
   version="1.1"
   id="svg1"
   xmlns="http://www.w3.org/2000/svg"
   xmlns:svg="http://www.w3.org/2000/svg">
  <defs
     id="defs1" />
  <g
     id="layer1"
     transform="translate(-4.661798,-5.5729463)">
    <g
       id="g4-3-1"
       transform="matrix(1.4716773,0,0,1.5155758,-10.565611,-65.995218)"
       style="fill:#ffffff">
      <path
         d="M 37.459182,50.131375 35.574553,49.33785 v 12.365802 l 3.339428,-8.067528 q 0.462894,-0.99191 0,-2.04995 -0.429826,-1.058036 -1.454799,-1.454799 z m -26.880745,5.091801 6.844177,16.465697 q 0.330632,0.7274 0.991909,1.190294 0.694336,0.462889 1.454799,0.529015 0.595147,0 1.091099,-0.264514 l 10.216668,-4.166021 q 0.694336,-0.330633 1.15723,-1.024973 0.462889,-0.694336 0.529016,-1.421736 0,-0.52902 -0.198397,-1.124166 L 25.754635,48.941074 q -0.264514,-0.793526 -0.991909,-1.256415 -0.694336,-0.462894 -1.454803,-0.462894 -0.529016,0 -1.091099,0.198396 l -10.150542,4.166018 q -1.024972,0.462893 -1.487862,1.520929 -0.462889,1.058036 0,2.116072 z m 22.284898,-5.224053 q 0,-1.190293 -0.826589,-1.983819 -0.793531,-0.79353 -1.950756,-0.79353 h -2.016882 l 4.794227,11.440024 z"
         id="text1-6-8"
         style="font-size:7.7611px;font-family:'Arial Black';-inkscape-font-specification:'Arial Black, ';text-align:center;text-anchor:middle;fill:#662bbe;fill-opacity:1;stroke:#662bbe;stroke-width:0;stroke-opacity:1"
         aria-label="󰘸 " />
      <path
         d="m 21.747882,57.32188 q 0.396962,-0.996806 1.510434,-1.42872 1.207733,-0.468481 2.311156,0.126474 1.100964,0.589476 1.724885,1.981641 0.604268,1.348316 0.2525,2.430532 -0.354225,1.076739 -1.573741,1.549789 -1.15471,0.447908 -2.132398,0.01003 l 1.247843,2.784328 -2.397793,0.9301 -1.242927,-2.773367 q -0.447049,0.977633 -1.531062,1.398123 -1.201842,0.466193 -2.302809,-0.123273 -1.103419,-0.594957 -1.729799,-1.992603 -0.604268,-1.348315 -0.250046,-2.425055 0.354229,-1.076735 1.567852,-1.5475 1.148821,-0.445625 2.157941,0.0315 L 18.092421,55.4457 20.490214,54.5156 Z m 2.749441,3.295605 q 0.471311,-0.18282 0.560064,-0.64831 0.08874,-0.465493 -0.186364,-1.079359 -0.643571,-1.436013 -1.656888,-1.042948 -0.441854,0.171392 -0.619978,0.607213 -0.17222,0.433532 0.181492,1.222793 0.262833,0.586464 0.722478,0.871399 0.457189,0.279458 0.999196,0.0692 z m -4.536361,1.759652 q 0.447743,-0.17368 0.619972,-0.607216 0.175657,-0.441299 -0.178054,-1.23056 -0.262832,-0.586461 -0.72002,-0.865915 -0.457192,-0.279458 -1.005089,-0.06695 -0.465418,0.180534 -0.560062,0.648312 -0.0912,0.460008 0.183908,1.073877 0.646027,1.441494 1.659345,1.04843 z"
         id="text2-6-0-7"
         style="font-size:7.7611px;font-family:'Arial Black';-inkscape-font-specification:'Arial Black, ';text-align:center;text-anchor:middle;fill:#ffffff;fill-opacity:1;stroke:#000000;stroke-width:0"
         aria-label="ф" />
    </g>
  </g>
</svg>
