<?xml version="1.0" encoding="UTF-8" standalone="no"?>
<!-- Created with Inkscape (http://www.inkscape.org/) -->

<svg
   width="300"
   height="220"
   viewBox="0 0 79.374999 58.208334"
   version="1.1"
   id="svg1"
   xmlns="http://www.w3.org/2000/svg"
   xmlns:svg="http://www.w3.org/2000/svg">
  <defs
     id="defs1" />
  <g
     id="layer1"
     transform="translate(-4.661798,-5.5729463)">
    <g
       id="g4-3-1"
       transform="matrix(1.4716773,0,0,1.5155758,7.9308746,-65.183617)"
       style="fill:#ffffff">
      <path
         d="M 37.459182,50.131375 35.574553,49.33785 v 12.365802 l 3.339428,-8.067528 q 0.462894,-0.99191 0,-2.04995 -0.429826,-1.058036 -1.454799,-1.454799 z m -26.880745,5.091801 6.844177,16.465697 q 0.330632,0.7274 0.991909,1.190294 0.694336,0.462889 1.454799,0.529015 0.595147,0 1.091099,-0.264514 l 10.216668,-4.166021 q 0.694336,-0.330633 1.15723,-1.024973 0.462889,-0.694336 0.529016,-1.421736 0,-0.52902 -0.198397,-1.124166 L 25.754635,48.941074 q -0.264514,-0.793526 -0.991909,-1.256415 -0.694336,-0.462894 -1.454803,-0.462894 -0.529016,0 -1.091099,0.198396 l -10.150542,4.166018 q -1.024972,0.462893 -1.487862,1.520929 -0.462889,1.058036 0,2.116072 z m 22.284898,-5.224053 q 0,-1.190293 -0.826589,-1.983819 -0.793531,-0.79353 -1.950756,-0.79353 h -2.016882 l 4.794227,11.440024 z"
         id="text1-6-8"
         style="font-size:7.7611px;font-family:'Arial Black';-inkscape-font-specification:'Arial Black, ';text-align:center;text-anchor:middle;fill:#662bbe;fill-opacity:1;stroke:#662bbe;stroke-width:0;stroke-opacity:1"
         aria-label="󰘸 " />
      <path
         d="m 2.5055768,64.480437 c 0,-2.102581 -2.02171258,-3.428825 -5.2564526,-3.509693 0,-0.841033 0.2911266,-1.051291 1.5203278,-1.132159 0.080869,-0.226432 0.1132159,-0.663122 0.1132159,-0.986596 -0.6307743,0.03235 -1.8599756,0.04852 -2.7657028,0.04852 -1.1806801,0 -2.1349284,-0.01617 -2.8303975,-0.04852 0,0.339648 0.016174,0.760164 0.1132159,0.986596 1.2453749,0.08087 1.5203278,0.291126 1.5203278,1.148332 -3.2185664,0.12939 -5.2726263,1.520328 -5.2726263,3.655257 0,2.23197 2.0217125,3.639082 5.2726263,3.719951 v 0.0647 c 0,0.808685 -0.3073003,1.002769 -1.5203278,1.067464 -0.097042,0.242605 -0.1455633,0.679295 -0.1455633,0.986596 0.646948,-0.01617 1.8761492,-0.03235 2.8465712,-0.03235 1.1159854,0 2.0702337,0.01617 2.7818765,0.03235 0,-0.323475 -0.032347,-0.743991 -0.1293896,-0.986596 -1.2453749,-0.06469 -1.5041541,-0.258779 -1.5041541,-1.067464 v -0.08087 c 3.25091372,-0.145563 5.2564526,-1.601196 5.2564526,-3.865514 z m -10.3511683,-0.04852 c 0,-1.536502 1.1159854,-2.474577 2.8950924,-2.506924 v 5.466711 c -1.7952807,-0.12939 -2.8950924,-1.229201 -2.8950924,-2.959787 z m 7.82807101,0.323474 c 0,1.601196 -1.09981161,2.603965 -2.86274501,2.652486 v -5.46671 c 1.7629334,0.129389 2.86274501,1.18068 2.86274501,2.814224 z"
         id="text4"
         style="font-weight:bold;font-size:16.1737px;font-family:Vollkorn;-inkscape-font-specification:'Vollkorn Bold';text-align:center;letter-spacing:-0.389904px;text-anchor:middle;stroke:#662bbe;stroke-width:0"
         transform="matrix(0.93673278,-0.37902809,0.39033404,0.90960032,0,0)"
         aria-label="Ф" />
    </g>
    <g
       id="g55"
       transform="translate(0,2.2583917)">
      <g
         id="g56"
         transform="translate(1.8036475)">
        <rect
           style="fill:#662bbe;fill-opacity:1;stroke:#662bbe;stroke-width:0"
           id="rect54"
           width="32.535198"
           height="13.769784"
           x="43.95681"
           y="45.970165"
           ry="2.1381738" />
        <text
           xml:space="preserve"
           style="font-style:normal;font-variant:normal;font-weight:bold;font-stretch:normal;font-size:12.7px;font-family:Verdana;-inkscape-font-specification:'Verdana Bold';text-align:center;letter-spacing:0px;text-anchor:middle;fill:#ffffff;fill-opacity:1;stroke:#662bbe;stroke-width:0"
           x="60.167263"
           y="57.192108"
           id="text3-2"><tspan
             id="tspan1-3"
             style="font-style:normal;font-variant:normal;font-weight:bold;font-stretch:normal;font-size:12.7px;font-family:Vollkorn;-inkscape-font-specification:'Vollkorn Bold';letter-spacing:0px;fill:#ffffff;fill-opacity:1;stroke-width:0"
             x="60.167263"
             y="57.192108"
             dx="0 -0.2 -0.2 0.050000001 -0.2">Karti</tspan></text>
        <text
           xml:space="preserve"
           style="font-style:normal;font-variant:normal;font-weight:bold;font-stretch:normal;font-size:12.7px;font-family:Verdana;-inkscape-font-specification:'Verdana Bold';text-align:center;letter-spacing:0px;text-anchor:middle;fill:#662bbe;fill-opacity:1;stroke:#662bbe;stroke-width:0"
           x="25.647541"
           y="57.200359"
           id="text3"><tspan
             id="tspan1"
             style="font-style:normal;font-variant:normal;font-weight:bold;font-stretch:normal;font-size:12.7px;font-family:Vollkorn;-inkscape-font-specification:'Vollkorn Bold';letter-spacing:0px;fill:#662bbe;fill-opacity:1;stroke-width:0"
             x="25.647541"
             y="57.200359"
             dx="0 -0.5 -0.2 -0.2 -0.5">Фlash</tspan></text>
      </g>
    </g>
  </g>
</svg>
